<svg width="166" height="42" viewBox="0 0 166 42" fill="none" xmlns="http://www.w3.org/2000/svg">
    <path d="M34.7179 30.0654L34.3293 29.4426L33.9087 28.7559L30.8106 23.7255L29.4745 21.5589L30.8106 19.0517L34.3346 12.4403L34.6806 11.8068C34.9894 11.2373 34.7977 10.5293 34.2388 10.1939L32.216 8.927L18.6046 0.415209C17.7209 -0.138403 16.603 -0.138403 15.7194 0.415209L1.27757 9.45399C0.484411 9.94905 0 10.8221 0 11.7589V30.2357C0 31.1726 0.484411 32.0403 1.27757 32.5407L15.7247 41.5848C16.6084 42.1384 17.7262 42.1384 18.6099 41.5848L32.8814 32.6525L34.3346 31.7422C34.9042 31.3855 35.0799 30.635 34.7232 30.0654H34.7179ZM29.6981 30.2304L17.6038 37.8C17.3323 37.9703 16.9863 37.9703 16.7148 37.8L3.90722 29.7833C3.66236 29.6289 3.51331 29.3627 3.51331 29.0753V12.9247C3.51331 12.6373 3.66236 12.3711 3.90722 12.2167L16.7202 4.2C16.9916 4.02966 17.3376 4.02966 17.6091 4.2L29.7886 11.8228C30.1612 12.057 30.289 12.5361 30.0814 12.9247L27.3293 18.0935L25.6738 15.4106H21.5376L24.2472 19.8023H12.5947V15.6395H20.5209V12.8715C20.5209 12.4563 20.1856 12.1209 19.7703 12.1209H9.84791C9.42205 12.1209 9.07072 12.4669 9.07072 12.8981V30.2357C9.07072 30.6616 9.41673 31.0129 9.84791 31.0129H20.7871C21.2023 31.0129 21.5376 30.6776 21.5376 30.2624V27.4943H12.5947V23.3316H24.5399L22.054 28H26.0464L27.5529 25.1681L27.8403 25.6365L29.9696 29.0913C30.2091 29.4798 30.092 29.9962 29.7034 30.2411L29.6981 30.2304Z" fill="#F7941D"/>
    <path d="M49.1064 22.2563H57.9642V19.451H49.1064V14.708H59.0874V11.8281H45.6996V30.1719H59.4547V27.2867H49.1064V22.2563Z" fill="#414042"/>
    <path d="M78.0593 11.8281H74.365L69.7445 18.3011L65.0388 11.8281H61.1582L67.6152 20.7977L60.8175 30.1719H64.6981L69.6167 23.1878L74.6045 30.1719H78.5064L71.6448 20.6859L78.0593 11.8281Z" fill="#414042"/>
    <path d="M84.5217 16.3582C85.1072 15.7833 85.7939 15.3361 86.5924 15.0221C87.3855 14.708 88.2639 14.5483 89.2274 14.5483C90.1908 14.5483 91.0532 14.7293 91.873 15.0859C92.6928 15.4426 93.4433 15.9802 94.1247 16.6989L96.3232 14.6281C95.4661 13.6167 94.4175 12.8502 93.1772 12.3338C91.9369 11.8175 90.5635 11.562 89.0623 11.562C87.6464 11.562 86.3475 11.7962 85.1604 12.254C83.9734 12.7171 82.9353 13.3772 82.041 14.2342C81.1521 15.0913 80.4601 16.0867 79.9703 17.2205C79.4806 18.3544 79.2357 19.616 79.2357 20.9947C79.2357 22.3734 79.4806 23.6297 79.9703 24.7688C80.4601 25.9027 81.1467 26.8981 82.0251 27.7551C82.9087 28.6122 83.9414 29.2722 85.1285 29.7354C86.3156 30.1985 87.6197 30.4274 89.0357 30.4274C90.5528 30.4274 91.9369 30.1665 93.1772 29.6395C94.4175 29.1179 95.4661 28.346 96.3232 27.3346L94.1247 25.2639C93.4433 25.9985 92.6928 26.5414 91.873 26.9034C91.0532 27.2601 90.1696 27.4411 89.2274 27.4411C88.2851 27.4411 87.3909 27.2814 86.5924 26.9673C85.7992 26.6532 85.1072 26.2061 84.5217 25.6312C83.9361 25.0563 83.4783 24.3749 83.1483 23.5871C82.8182 22.7992 82.6479 21.9369 82.6479 20.9947C82.6479 20.0525 82.8129 19.1848 83.1483 18.4023C83.4783 17.6144 83.9361 16.9331 84.5217 16.3582Z" fill="#414042"/>
    <path d="M114.864 14.2236C113.98 13.3772 112.937 12.7224 111.734 12.2593C110.531 11.7962 109.216 11.5673 107.805 11.5673C106.395 11.5673 105.053 11.8015 103.85 12.2753C102.647 12.749 101.598 13.4038 100.704 14.2555C99.8152 15.1019 99.1232 16.0973 98.6334 17.2418C98.1437 18.3863 97.8988 19.6373 97.8988 21C97.8988 22.3627 98.1437 23.5924 98.6334 24.7316C99.1232 25.876 99.8099 26.8768 100.704 27.7338C101.593 28.5909 102.647 29.2563 103.861 29.7247C105.075 30.1985 106.389 30.4327 107.805 30.4327C109.221 30.4327 110.531 30.1985 111.734 29.7407C112.937 29.2776 113.98 28.6175 114.864 27.7605C115.748 26.9034 116.429 25.9027 116.919 24.7582C117.408 23.6137 117.653 22.3627 117.653 21C117.653 19.6373 117.408 18.381 116.919 17.2259C116.429 16.0707 115.742 15.07 114.864 14.2236ZM113.735 23.5924C113.411 24.3802 112.963 25.0616 112.383 25.6365C111.808 26.2114 111.132 26.6586 110.355 26.9726C109.578 27.2867 108.726 27.4464 107.8 27.4464C106.874 27.4464 106.011 27.2867 105.218 26.9726C104.425 26.6586 103.738 26.2114 103.163 25.6259C102.589 25.0403 102.131 24.3536 101.801 23.5711C101.471 22.7833 101.306 21.9316 101.306 21.0053C101.306 20.0791 101.471 19.2008 101.801 18.4236C102.131 17.6464 102.589 16.965 103.163 16.3795C103.738 15.7939 104.425 15.3468 105.218 15.0274C106.011 14.7133 106.874 14.5536 107.8 14.5536C108.726 14.5536 109.578 14.7133 110.355 15.0274C111.132 15.3414 111.814 15.7886 112.399 16.3635C112.985 16.9384 113.432 17.6198 113.751 18.4076C114.065 19.1954 114.225 20.0578 114.225 21C114.225 21.9422 114.065 22.8099 113.741 23.5924H113.735Z" fill="#414042"/>
    <path d="M124.674 11.8281H121.268V30.1719H124.674V11.8281Z" fill="#414042"/>
    <path d="M142.544 24.2684L132.43 11.8281H129.625V30.1719H133.005V17.7316L143.098 30.1719H145.898V11.8281H142.544V24.2684Z" fill="#414042"/>
    <path d="M153.973 27.2867L164.763 14.1065V11.8281H149.646V14.708H160.255L149.465 27.8882V30.1719H165.131V27.2867H153.973Z" fill="#414042"/>
</svg>
